# xmcd
#
# Track frame offsets:
#	150
#	12658
#	38786
#	48267
#	60522
#	76053
#	88518
#	103996
#	117368
#	129308
#	144577
#	157087
#	167452
#	179298
#	192163
#	204115
#	214591
#	230451
#
# Disc length: 3239 seconds
#
# Revision: 0
# Processed by: cddbd v1.5.1PL2 Copyright (c) Steve Scherf et al.
# Submitted via: audiograbber 1.83.01
#
DISCID=ea0ca512
DTITLE=Bob Marl - Bob Marley and The Wailers
DYEAR=1900
DGENRE=
TTITLE0=Lively Up Yourself
TTITLE1=Rainbow Country
TTITLE2=Sun Is Shining
TTITLE3=Soul Almighty
TTITLE4=All In One
TTITLE5=Can`t You See
TTITLE6=Chances Are
TTITLE7=Hammer
TTITLE8=Mellow Mood
TTITLE9=Mr. Brown
TTITLE10=Reaction
TTITLE11=Soon Come
TTITLE12=There She Goes
TTITLE13=Touch Me
TTITLE14=It`s Alright
TTITLE15=Stop The Train
TTITLE16=Duppy Conquerer
TTITLE17=Trench Town Rock
EXTD=
EXTT0=
EXTT1=
EXTT2=
EXTT3=
EXTT4=
EXTT5=
EXTT6=
EXTT7=
EXTT8=
EXTT9=
EXTT10=
EXTT11=
EXTT12=
EXTT13=
EXTT14=
EXTT15=
EXTT16=
EXTT17=
PLAYORDER=
